
CASCADE Topology V3, (c) Open Cascade
Locations 0
Curve2ds 144
7 0 0  1 2 2  -0.59999999999999964 -4  0.59999999999999964 -4 
 0 2 1.1999999999999993 2
7 0 0  1 2 2  1 -0.59999999999999964  1 0.59999999999999964 
 0 2 1.1999999999999993 2
7 0 0  1 2 2  0.59999999999999964 -4  0.59999999999999964 4 
 0 2 8 2
7 0 0  1 2 2  -1 4  -1 -4 
 0 2 8 2
7 0 0  1 2 2  0.59999999999999964 4  -0.59999999999999964 4 
 0 2 1.1999999999999993 2
7 0 0  1 2 2  -1 0.59999999999999964  -1 -0.59999999999999964 
 0 2 1.1999999999999993 2
7 0 0  1 2 2  -0.59999999999999964 4  -0.59999999999999964 -4 
 0 2 8 2
7 0 0  1 2 2  1 -4  1 4 
 0 2 8 2
7 0 0  1 2 2  1 0.59999999999999964  -1 0.59999999999999964 
 0 2 2 2
7 0 0  1 2 2  -1 4  1 4 
 0 2 2 2
7 0 0  1 2 2  -1 -0.59999999999999964  -1 0.59999999999999964 
 0 2 1.1999999999999993 2
7 0 0  1 2 2  -0.59999999999999964 -4  0.59999999999999964 -4 
 0 2 1.1999999999999993 2
7 0 0  1 2 2  1 -0.59999999999999964  -1 -0.59999999999999964 
 0 2 2 2
7 0 0  1 2 2  1 4  -1 4 
 0 2 2 2
7 0 0  1 2 2  -1 -4  1 -4 
 0 2 2 2
7 0 0  1 2 2  -1 0.59999999999999964  1 0.59999999999999964 
 0 2 2 2
7 0 0  1 2 2  1 4  1 -4 
 0 2 8 2
7 0 0  1 2 2  0.59999999999999964 -4  0.59999999999999964 4 
 0 2 8 2
7 0 0  1 2 2  -1 -0.59999999999999964  1 -0.59999999999999964 
 0 2 2 2
7 0 0  1 2 2  1 -4  -1 -4 
 0 2 2 2
7 0 0  1 2 2  1 0.59999999999999964  1 -0.59999999999999964 
 0 2 1.1999999999999993 2
7 0 0  1 2 2  0.59999999999999964 4  -0.59999999999999964 4 
 0 2 1.1999999999999993 2
7 0 0  1 2 2  -1 -4  -1 4 
 0 2 8 2
7 0 0  1 2 2  -0.59999999999999964 4  -0.59999999999999964 -4 
 0 2 8 2
7 0 0  1 2 2  -0.60000000000000053 -4  0.59999999999999964 -4 
 0 2 1.2000000000000002 2
7 0 0  1 2 2  1 -0.60000000000000009  1 0.60000000000000009 
 0 2 1.2000000000000002 2
7 0 0  1 2 2  0.59999999999999964 -4  0.59999999999999964 4 
 0 2 8 2
7 0 0  1 2 2  -1 4  -1 -4 
 0 2 8 2
7 0 0  1 2 2  0.59999999999999964 4  -0.60000000000000053 4 
 0 2 1.2000000000000002 2
7 0 0  1 2 2  -1 0.60000000000000053  -1 -0.59999999999999964 
 0 2 1.2000000000000002 2
7 0 0  1 2 2  -0.60000000000000053 4  -0.60000000000000053 -4 
 0 2 8 2
7 0 0  1 2 2  1 -4  1 4 
 0 2 8 2
7 0 0  1 2 2  1 0.60000000000000009  -1 0.60000000000000009 
 0 2 2 2
7 0 0  1 2 2  -1 4  1 4 
 0 2 2 2
7 0 0  1 2 2  -1 -0.60000000000000009  -1 0.60000000000000009 
 0 2 1.2000000000000002 2
7 0 0  1 2 2  -0.60000000000000053 -4  0.59999999999999964 -4 
 0 2 1.2000000000000002 2
7 0 0  1 2 2  1 -0.60000000000000009  -1 -0.60000000000000009 
 0 2 2 2
7 0 0  1 2 2  1 4  -1 4 
 0 2 2 2
7 0 0  1 2 2  -1 -4  1 -4 
 0 2 2 2
7 0 0  1 2 2  -1 0.60000000000000053  1 0.60000000000000053 
 0 2 2 2
7 0 0  1 2 2  1 4  1 -4 
 0 2 8 2
7 0 0  1 2 2  0.59999999999999964 -4  0.59999999999999964 4 
 0 2 8 2
7 0 0  1 2 2  -1 -0.59999999999999964  1 -0.59999999999999964 
 0 2 2 2
7 0 0  1 2 2  1 -4  -1 -4 
 0 2 2 2
7 0 0  1 2 2  1 0.60000000000000053  1 -0.59999999999999964 
 0 2 1.2000000000000002 2
7 0 0  1 2 2  0.59999999999999964 4  -0.60000000000000053 4 
 0 2 1.2000000000000002 2
7 0 0  1 2 2  -1 -4  -1 4 
 0 2 8 2
7 0 0  1 2 2  -0.60000000000000053 4  -0.60000000000000053 -4 
 0 2 8 2
7 0 0  1 2 2  -0.59999999999999998 -4  0.59999999999999998 -4 
 0 2 1.2 2
7 0 0  1 2 2  1 -0.59999999999999987  1 0.60000000000000009 
 0 2 1.2 2
7 0 0  1 2 2  0.59999999999999998 -4  0.59999999999999998 4 
 0 2 8 2
7 0 0  1 2 2  -1 4  -1 -4 
 0 2 8 2
7 0 0  1 2 2  0.59999999999999998 4  -0.59999999999999998 4 
 0 2 1.2 2
7 0 0  1 2 2  -1 0.60000000000000009  -1 -0.59999999999999987 
 0 2 1.2 2
7 0 0  1 2 2  -0.59999999999999998 4  -0.59999999999999998 -4 
 0 2 8 2
7 0 0  1 2 2  1 -4  1 4 
 0 2 8 2
7 0 0  1 2 2  1 0.60000000000000009  -1 0.60000000000000009 
 0 2 2 2
7 0 0  1 2 2  -1 4  1 4 
 0 2 2 2
7 0 0  1 2 2  -1 -0.59999999999999987  -1 0.60000000000000009 
 0 2 1.2 2
7 0 0  1 2 2  -0.59999999999999998 -4  0.59999999999999998 -4 
 0 2 1.2 2
7 0 0  1 2 2  1 -0.59999999999999987  -1 -0.59999999999999987 
 0 2 2 2
7 0 0  1 2 2  1 4  -1 4 
 0 2 2 2
7 0 0  1 2 2  -1 -4  1 -4 
 0 2 2 2
7 0 0  1 2 2  -1 0.60000000000000009  1 0.60000000000000009 
 0 2 2 2
7 0 0  1 2 2  1 4  1 -4 
 0 2 8 2
7 0 0  1 2 2  0.59999999999999998 -4  0.59999999999999998 4 
 0 2 8 2
7 0 0  1 2 2  -1 -0.59999999999999987  1 -0.59999999999999987 
 0 2 2 2
7 0 0  1 2 2  1 -4  -1 -4 
 0 2 2 2
7 0 0  1 2 2  1 0.60000000000000009  1 -0.59999999999999987 
 0 2 1.2 2
7 0 0  1 2 2  0.59999999999999998 4  -0.59999999999999998 4 
 0 2 1.2 2
7 0 0  1 2 2  -1 -4  -1 4 
 0 2 8 2
7 0 0  1 2 2  -0.59999999999999998 4  -0.59999999999999998 -4 
 0 2 8 2
7 0 0  1 2 2  -0.60000000000000009 -3  0.60000000000000009 -3 
 0 2 1.2000000000000002 2
7 0 0  1 2 2  1 -0.60000000000000009  1 0.60000000000000009 
 0 2 1.2000000000000002 2
7 0 0  1 2 2  0.60000000000000009 -3  0.60000000000000009 3 
 0 2 6 2
7 0 0  1 2 2  -1 3  -1 -3 
 0 2 6 2
7 0 0  1 2 2  0.60000000000000009 3  -0.60000000000000009 3 
 0 2 1.2000000000000002 2
7 0 0  1 2 2  -1 0.60000000000000009  -1 -0.60000000000000009 
 0 2 1.2000000000000002 2
7 0 0  1 2 2  -0.60000000000000009 3  -0.60000000000000009 -3 
 0 2 6 2
7 0 0  1 2 2  1 -3  1 3 
 0 2 6 2
7 0 0  1 2 2  1 0.60000000000000009  -1 0.60000000000000009 
 0 2 2 2
7 0 0  1 2 2  -1 3  1 3 
 0 2 2 2
7 0 0  1 2 2  -1 -0.60000000000000009  -1 0.60000000000000009 
 0 2 1.2000000000000002 2
7 0 0  1 2 2  -0.60000000000000009 -3  0.60000000000000009 -3 
 0 2 1.2000000000000002 2
7 0 0  1 2 2  1 -0.60000000000000009  -1 -0.60000000000000009 
 0 2 2 2
7 0 0  1 2 2  1 3  -1 3 
 0 2 2 2
7 0 0  1 2 2  -1 -3  1 -3 
 0 2 2 2
7 0 0  1 2 2  -1 0.60000000000000009  1 0.60000000000000009 
 0 2 2 2
7 0 0  1 2 2  1 3  1 -3 
 0 2 6 2
7 0 0  1 2 2  0.60000000000000009 -3  0.60000000000000009 3 
 0 2 6 2
7 0 0  1 2 2  -1 -0.60000000000000009  1 -0.60000000000000009 
 0 2 2 2
7 0 0  1 2 2  1 -3  -1 -3 
 0 2 2 2
7 0 0  1 2 2  1 0.60000000000000009  1 -0.60000000000000009 
 0 2 1.2000000000000002 2
7 0 0  1 2 2  0.60000000000000009 3  -0.60000000000000009 3 
 0 2 1.2000000000000002 2
7 0 0  1 2 2  -1 -3  -1 3 
 0 2 6 2
7 0 0  1 2 2  -0.60000000000000009 3  -0.60000000000000009 -3 
 0 2 6 2
7 0 0  1 2 2  -5.5 -0.59999999999999964  5.5 -0.59999999999999964 
 0 2 11 2
7 0 0  1 2 2  1 -5.5  1 5.5 
 0 2 11 2
7 0 0  1 2 2  5.5 -0.59999999999999964  5.5 0.59999999999999964 
 0 2 1.1999999999999993 2
7 0 0  1 2 2  -1 0.59999999999999964  -1 -0.59999999999999964 
 0 2 1.1999999999999993 2
7 0 0  1 2 2  5.5 0.59999999999999964  -5.5 0.59999999999999964 
 0 2 11 2
7 0 0  1 2 2  -1 5.5  -1 -5.5 
 0 2 11 2
7 0 0  1 2 2  -5.5 0.59999999999999964  -5.5 -0.59999999999999964 
 0 2 1.1999999999999993 2
7 0 0  1 2 2  1 -0.59999999999999964  1 0.59999999999999964 
 0 2 1.1999999999999993 2
7 0 0  1 2 2  1 5.5  -1 5.5 
 0 2 2 2
7 0 0  1 2 2  -1 0.59999999999999964  1 0.59999999999999964 
 0 2 2 2
7 0 0  1 2 2  -1 -5.5  -1 5.5 
 0 2 11 2
7 0 0  1 2 2  -5.5 -0.59999999999999964  5.5 -0.59999999999999964 
 0 2 11 2
7 0 0  1 2 2  1 -5.5  -1 -5.5 
 0 2 2 2
7 0 0  1 2 2  1 0.59999999999999964  -1 0.59999999999999964 
 0 2 2 2
7 0 0  1 2 2  -1 -0.59999999999999964  1 -0.59999999999999964 
 0 2 2 2
7 0 0  1 2 2  -1 5.5  1 5.5 
 0 2 2 2
7 0 0  1 2 2  1 0.59999999999999964  1 -0.59999999999999964 
 0 2 1.1999999999999993 2
7 0 0  1 2 2  5.5 -0.59999999999999964  5.5 0.59999999999999964 
 0 2 1.1999999999999993 2
7 0 0  1 2 2  -1 -5.5  1 -5.5 
 0 2 2 2
7 0 0  1 2 2  1 -0.59999999999999964  -1 -0.59999999999999964 
 0 2 2 2
7 0 0  1 2 2  1 5.5  1 -5.5 
 0 2 11 2
7 0 0  1 2 2  5.5 0.59999999999999964  -5.5 0.59999999999999964 
 0 2 11 2
7 0 0  1 2 2  -1 -0.59999999999999964  -1 0.59999999999999964 
 0 2 1.1999999999999993 2
7 0 0  1 2 2  -5.5 0.59999999999999964  -5.5 -0.59999999999999964 
 0 2 1.1999999999999993 2
7 0 0  1 2 2  -2 -0.60000000000000053  2 -0.60000000000000053 
 0 2 4 2
7 0 0  1 2 2  1 -2  1 2 
 0 2 4 2
7 0 0  1 2 2  2 -0.60000000000000053  2 0.59999999999999876 
 0 2 1.1999999999999993 2
7 0 0  1 2 2  -1 0.59999999999999964  -1 -0.59999999999999964 
 0 2 1.1999999999999993 2
7 0 0  1 2 2  2 0.59999999999999876  -2 0.59999999999999876 
 0 2 4 2
7 0 0  1 2 2  -1 2  -1 -2 
 0 2 4 2
7 0 0  1 2 2  -2 0.59999999999999876  -2 -0.60000000000000053 
 0 2 1.1999999999999993 2
7 0 0  1 2 2  1 -0.59999999999999964  1 0.59999999999999964 
 0 2 1.1999999999999993 2
7 0 0  1 2 2  1 2  -1 2 
 0 2 2 2
7 0 0  1 2 2  -1 0.59999999999999964  1 0.59999999999999964 
 0 2 2 2
7 0 0  1 2 2  -1 -2  -1 2 
 0 2 4 2
7 0 0  1 2 2  -2 -0.60000000000000053  2 -0.60000000000000053 
 0 2 4 2
7 0 0  1 2 2  1 -2  -1 -2 
 0 2 2 2
7 0 0  1 2 2  1 0.59999999999999964  -1 0.59999999999999964 
 0 2 2 2
7 0 0  1 2 2  -1 -0.59999999999999964  1 -0.59999999999999964 
 0 2 2 2
7 0 0  1 2 2  -1 2  1 2 
 0 2 2 2
7 0 0  1 2 2  1 0.59999999999999964  1 -0.59999999999999964 
 0 2 1.1999999999999993 2
7 0 0  1 2 2  2 -0.60000000000000053  2 0.59999999999999876 
 0 2 1.1999999999999993 2
7 0 0  1 2 2  -1 -2  1 -2 
 0 2 2 2
7 0 0  1 2 2  1 -0.59999999999999964  -1 -0.59999999999999964 
 0 2 2 2
7 0 0  1 2 2  1 2  1 -2 
 0 2 4 2
7 0 0  1 2 2  2 0.59999999999999876  -2 0.59999999999999876 
 0 2 4 2
7 0 0  1 2 2  -1 -0.59999999999999964  -1 0.59999999999999964 
 0 2 1.1999999999999993 2
7 0 0  1 2 2  -2 0.59999999999999876  -2 -0.60000000000000053 
 0 2 1.1999999999999993 2
Curves 72
8 0 1.1999999999999993
7 0 0  1 2 2  5.8000000000000007 -4 0  7 -4 0 
 0 2 1.1999999999999993 2
8 0 8
7 0 0  1 2 2  7 -4 0  7 4 0 
 0 2 8 2
8 0 1.1999999999999993
7 0 0  1 2 2  7 4 0  5.8000000000000007 4 0 
 0 2 1.1999999999999993 2
8 0 8
7 0 0  1 2 2  5.8000000000000007 4 0  5.8000000000000007 -4 0 
 0 2 8 2
8 0 2
7 0 0  1 2 2  7 -4 0  7 -4 2 
 0 2 2 2
8 0 1.1999999999999993
7 0 0  1 2 2  5.8000000000000007 -4 2  7 -4 2 
 0 2 1.1999999999999993 2
8 0 2
7 0 0  1 2 2  5.8000000000000007 -4 0  5.8000000000000007 -4 2 
 0 2 2 2
8 0 2
7 0 0  1 2 2  7 4 0  7 4 2 
 0 2 2 2
8 0 8
7 0 0  1 2 2  7 -4 2  7 4 2 
 0 2 8 2
8 0 2
7 0 0  1 2 2  5.8000000000000007 4 0  5.8000000000000007 4 2 
 0 2 2 2
8 0 1.1999999999999993
7 0 0  1 2 2  7 4 2  5.8000000000000007 4 2 
 0 2 1.1999999999999993 2
8 0 8
7 0 0  1 2 2  5.8000000000000007 4 2  5.8000000000000007 -4 2 
 0 2 8 2
8 0 1.2000000000000002
7 0 0  1 2 2  2.7999999999999998 -4 0  4 -4 0 
 0 2 1.2000000000000002 2
8 0 8
7 0 0  1 2 2  4 -4 0  4 4 0 
 0 2 8 2
8 0 1.2000000000000002
7 0 0  1 2 2  4 4 0  2.7999999999999998 4 0 
 0 2 1.2000000000000002 2
8 0 8
7 0 0  1 2 2  2.7999999999999998 4 0  2.7999999999999998 -4 0 
 0 2 8 2
8 0 2
7 0 0  1 2 2  4 -4 0  4 -4 2 
 0 2 2 2
8 0 1.2000000000000002
7 0 0  1 2 2  2.7999999999999998 -4 2  4 -4 2 
 0 2 1.2000000000000002 2
8 0 2
7 0 0  1 2 2  2.7999999999999998 -4 0  2.7999999999999998 -4 2 
 0 2 2 2
8 0 2
7 0 0  1 2 2  4 4 0  4 4 2 
 0 2 2 2
8 0 8
7 0 0  1 2 2  4 -4 2  4 4 2 
 0 2 8 2
8 0 2
7 0 0  1 2 2  2.7999999999999998 4 0  2.7999999999999998 4 2 
 0 2 2 2
8 0 1.2000000000000002
7 0 0  1 2 2  4 4 2  2.7999999999999998 4 2 
 0 2 1.2000000000000002 2
8 0 8
7 0 0  1 2 2  2.7999999999999998 4 2  2.7999999999999998 -4 2 
 0 2 8 2
8 0 1.2
7 0 0  1 2 2  -0.19999999999999996 -4 0  1 -4 0 
 0 2 1.2 2
8 0 8
7 0 0  1 2 2  1 -4 0  1 4 0 
 0 2 8 2
8 0 1.2
7 0 0  1 2 2  1 4 0  -0.19999999999999996 4 0 
 0 2 1.2 2
8 0 8
7 0 0  1 2 2  -0.19999999999999996 4 0  -0.19999999999999996 -4 0 
 0 2 8 2
8 0 2
7 0 0  1 2 2  1 -4 0  1 -4 2 
 0 2 2 2
8 0 1.2
7 0 0  1 2 2  -0.19999999999999996 -4 2  1 -4 2 
 0 2 1.2 2
8 0 2
7 0 0  1 2 2  -0.19999999999999996 -4 0  -0.19999999999999996 -4 2 
 0 2 2 2
8 0 2
7 0 0  1 2 2  1 4 0  1 4 2 
 0 2 2 2
8 0 8
7 0 0  1 2 2  1 -4 2  1 4 2 
 0 2 8 2
8 0 2
7 0 0  1 2 2  -0.19999999999999996 4 0  -0.19999999999999996 4 2 
 0 2 2 2
8 0 1.2
7 0 0  1 2 2  1 4 2  -0.19999999999999996 4 2 
 0 2 1.2 2
8 0 8
7 0 0  1 2 2  -0.19999999999999996 4 2  -0.19999999999999996 -4 2 
 0 2 8 2
8 0 1.2000000000000002
7 0 0  1 2 2  -3.2000000000000002 -2 0  -2 -2 0 
 0 2 1.2000000000000002 2
8 0 6
7 0 0  1 2 2  -2 -2 0  -2 4 0 
 0 2 6 2
8 0 1.2000000000000002
7 0 0  1 2 2  -2 4 0  -3.2000000000000002 4 0 
 0 2 1.2000000000000002 2
8 0 6
7 0 0  1 2 2  -3.2000000000000002 4 0  -3.2000000000000002 -2 0 
 0 2 6 2
8 0 2
7 0 0  1 2 2  -2 -2 0  -2 -2 2 
 0 2 2 2
8 0 1.2000000000000002
7 0 0  1 2 2  -3.2000000000000002 -2 2  -2 -2 2 
 0 2 1.2000000000000002 2
8 0 2
7 0 0  1 2 2  -3.2000000000000002 -2 0  -3.2000000000000002 -2 2 
 0 2 2 2
8 0 2
7 0 0  1 2 2  -2 4 0  -2 4 2 
 0 2 2 2
8 0 6
7 0 0  1 2 2  -2 -2 2  -2 4 2 
 0 2 6 2
8 0 2
7 0 0  1 2 2  -3.2000000000000002 4 0  -3.2000000000000002 4 2 
 0 2 2 2
8 0 1.2000000000000002
7 0 0  1 2 2  -2 4 2  -3.2000000000000002 4 2 
 0 2 1.2000000000000002 2
8 0 6
7 0 0  1 2 2  -3.2000000000000002 4 2  -3.2000000000000002 -2 2 
 0 2 6 2
8 0 11
7 0 0  1 2 2  -4.5999999999999996 5.8000000000000007 0  6.4000000000000004 5.8000000000000007 0 
 0 2 11 2
8 0 1.1999999999999993
7 0 0  1 2 2  6.4000000000000004 5.8000000000000007 0  6.4000000000000004 7 0 
 0 2 1.1999999999999993 2
8 0 11
7 0 0  1 2 2  6.4000000000000004 7 0  -4.5999999999999996 7 0 
 0 2 11 2
8 0 1.1999999999999993
7 0 0  1 2 2  -4.5999999999999996 7 0  -4.5999999999999996 5.8000000000000007 0 
 0 2 1.1999999999999993 2
8 0 2
7 0 0  1 2 2  6.4000000000000004 5.8000000000000007 0  6.4000000000000004 5.8000000000000007 2 
 0 2 2 2
8 0 11
7 0 0  1 2 2  -4.5999999999999996 5.8000000000000007 2  6.4000000000000004 5.8000000000000007 2 
 0 2 11 2
8 0 2
7 0 0  1 2 2  -4.5999999999999996 5.8000000000000007 0  -4.5999999999999996 5.8000000000000007 2 
 0 2 2 2
8 0 2
7 0 0  1 2 2  6.4000000000000004 7 0  6.4000000000000004 7 2 
 0 2 2 2
8 0 1.1999999999999993
7 0 0  1 2 2  6.4000000000000004 5.8000000000000007 2  6.4000000000000004 7 2 
 0 2 1.1999999999999993 2
8 0 2
7 0 0  1 2 2  -4.5999999999999996 7 0  -4.5999999999999996 7 2 
 0 2 2 2
8 0 11
7 0 0  1 2 2  6.4000000000000004 7 2  -4.5999999999999996 7 2 
 0 2 11 2
8 0 1.1999999999999993
7 0 0  1 2 2  -4.5999999999999996 7 2  -4.5999999999999996 5.8000000000000007 2 
 0 2 1.1999999999999993 2
8 0 4
7 0 0  1 2 2  2.7999999999999998 -7 0  6.7999999999999998 -7 0 
 0 2 4 2
8 0 1.1999999999999993
7 0 0  1 2 2  6.7999999999999998 -7 0  6.7999999999999998 -5.8000000000000007 0 
 0 2 1.1999999999999993 2
8 0 4
7 0 0  1 2 2  6.7999999999999998 -5.8000000000000007 0  2.7999999999999998 -5.8000000000000007 0 
 0 2 4 2
8 0 1.1999999999999993
7 0 0  1 2 2  2.7999999999999998 -5.8000000000000007 0  2.7999999999999998 -7 0 
 0 2 1.1999999999999993 2
8 0 2
7 0 0  1 2 2  6.7999999999999998 -7 0  6.7999999999999998 -7 2 
 0 2 2 2
8 0 4
7 0 0  1 2 2  2.7999999999999998 -7 2  6.7999999999999998 -7 2 
 0 2 4 2
8 0 2
7 0 0  1 2 2  2.7999999999999998 -7 0  2.7999999999999998 -7 2 
 0 2 2 2
8 0 2
7 0 0  1 2 2  6.7999999999999998 -5.8000000000000007 0  6.7999999999999998 -5.8000000000000007 2 
 0 2 2 2
8 0 1.1999999999999993
7 0 0  1 2 2  6.7999999999999998 -7 2  6.7999999999999998 -5.8000000000000007 2 
 0 2 1.1999999999999993 2
8 0 2
7 0 0  1 2 2  2.7999999999999998 -5.8000000000000007 0  2.7999999999999998 -5.8000000000000007 2 
 0 2 2 2
8 0 4
7 0 0  1 2 2  6.7999999999999998 -5.8000000000000007 2  2.7999999999999998 -5.8000000000000007 2 
 0 2 4 2
8 0 1.1999999999999993
7 0 0  1 2 2  2.7999999999999998 -5.8000000000000007 2  2.7999999999999998 -7 2 
 0 2 1.1999999999999993 2
Polygon3D 0
PolygonOnTriangulations 0
Surfaces 36
9 0 0 0 0 1 1 2 2 2 2 5.8000000000000007 -4 0  5.8000000000000007 4 0  
7 -4 0  7 4 0  

-0.59999999999999964 2
0.59999999999999964 2

-4 2
4 2

9 0 0 0 0 1 1 2 2 2 2 5.8000000000000007 -4 2  7 -4 2  
5.8000000000000007 -4 0  7 -4 0  

-1 2
1 2

-0.59999999999999964 2
0.59999999999999964 2

9 0 0 0 0 1 1 2 2 2 2 7 4 0  7 -4 0  
7 4 2  7 -4 2  

-1 2
1 2

-4 2
4 2

9 0 0 0 0 1 1 2 2 2 2 5.8000000000000007 4 0  7 4 0  
5.8000000000000007 4 2  7 4 2  

-1 2
1 2

-0.59999999999999964 2
0.59999999999999964 2

9 0 0 0 0 1 1 2 2 2 2 5.7999999999999998 4 2  5.7999999999999998 -4 2  
5.7999999999999998 4 0  5.7999999999999998 -4 0  

-1 2
1 2

-4 2
4 2

9 0 0 0 0 1 1 2 2 2 2 5.8000000000000007 -4 2  5.8000000000000007 4 2  
7 -4 2  7 4 2  

-0.59999999999999964 2
0.59999999999999964 2

-4 2
4 2

9 0 0 0 0 1 1 2 2 2 2 2.7999999999999998 -4 0  2.7999999999999998 4 0  
4 -4 0  4 4 0  

-0.60000000000000053 2
0.59999999999999964 2

-4 2
4 2

9 0 0 0 0 1 1 2 2 2 2 2.7999999999999998 -4 2  4 -4 2  
2.7999999999999998 -4 0  4 -4 0  

-1 2
1 2

-0.60000000000000009 2
0.60000000000000009 2

9 0 0 0 0 1 1 2 2 2 2 4 4 0  4 -4 0  
4 4 2  4 -4 2  

-1 2
1 2

-4 2
4 2

9 0 0 0 0 1 1 2 2 2 2 2.7999999999999998 4 0  4 4 0  
2.7999999999999998 4 2  4 4 2  

-1 2
1 2

-0.59999999999999964 2
0.60000000000000053 2

9 0 0 0 0 1 1 2 2 2 2 2.7999999999999998 4 2  2.7999999999999998 -4 2  
2.7999999999999998 4 0  2.7999999999999998 -4 0  

-1 2
1 2

-4 2
4 2

9 0 0 0 0 1 1 2 2 2 2 2.7999999999999998 -4 2  2.7999999999999998 4 2  
4 -4 2  4 4 2  

-0.60000000000000053 2
0.59999999999999964 2

-4 2
4 2

9 0 0 0 0 1 1 2 2 2 2 -0.19999999999999996 -4 0  -0.19999999999999996 4 0  
1 -4 0  1 4 0  

-0.59999999999999998 2
0.59999999999999998 2

-4 2
4 2

9 0 0 0 0 1 1 2 2 2 2 -0.19999999999999996 -4 2  1 -4 2  
-0.19999999999999996 -4 0  1 -4 0  

-1 2
1 2

-0.59999999999999987 2
0.60000000000000009 2

9 0 0 0 0 1 1 2 2 2 2 1 4 0  1 -4 0  
1 4 2  1 -4 2  

-1 2
1 2

-4 2
4 2

9 0 0 0 0 1 1 2 2 2 2 -0.19999999999999984 4 0  1 4 0  
-0.19999999999999984 4 2  1 4 2  

-1 2
1 2

-0.59999999999999987 2
0.60000000000000009 2

9 0 0 0 0 1 1 2 2 2 2 -0.19999999999999996 4 2  -0.19999999999999996 -4 2  
-0.19999999999999996 4 0  -0.19999999999999996 -4 0  

-1 2
1 2

-4 2
4 2

9 0 0 0 0 1 1 2 2 2 2 -0.19999999999999996 -4 2  -0.19999999999999996 4 2  
1 -4 2  1 4 2  

-0.59999999999999998 2
0.59999999999999998 2

-4 2
4 2

9 0 0 0 0 1 1 2 2 2 2 -3.2000000000000002 -2 0  -3.2000000000000002 4 0  
-2 -2 0  -2 4 0  

-0.60000000000000009 2
0.60000000000000009 2

-3 2
3 2

9 0 0 0 0 1 1 2 2 2 2 -3.2000000000000002 -2 2  -2 -2 2  
-3.2000000000000002 -2 0  -2 -2 0  

-1 2
1 2

-0.60000000000000009 2
0.60000000000000009 2

9 0 0 0 0 1 1 2 2 2 2 -2 4 0  -2 -2 0  
-2 4 2  -2 -2 2  

-1 2
1 2

-3 2
3 2

9 0 0 0 0 1 1 2 2 2 2 -3.2000000000000002 4 0  -2 4 0  
-3.2000000000000002 4 2  -2 4 2  

-1 2
1 2

-0.60000000000000009 2
0.60000000000000009 2

9 0 0 0 0 1 1 2 2 2 2 -3.2000000000000006 4 2  -3.2000000000000006 -2 2  
-3.2000000000000006 4 0  -3.2000000000000006 -2 0  

-1 2
1 2

-3 2
3 2

9 0 0 0 0 1 1 2 2 2 2 -3.2000000000000002 -2 2  -3.2000000000000002 4 2  
-2 -2 2  -2 4 2  

-0.60000000000000009 2
0.60000000000000009 2

-3 2
3 2

9 0 0 0 0 1 1 2 2 2 2 -4.5999999999999996 5.8000000000000007 0  -4.5999999999999996 7 0  
6.4000000000000004 5.8000000000000007 0  6.4000000000000004 7 0  

-5.5 2
5.5 2

-0.59999999999999964 2
0.59999999999999964 2

9 0 0 0 0 1 1 2 2 2 2 -4.5999999999999996 5.8000000000000016 2  6.4000000000000004 5.8000000000000016 2  
-4.5999999999999996 5.8000000000000016 0  6.4000000000000004 5.8000000000000016 0  

-1 2
1 2

-5.5 2
5.5 2

9 0 0 0 0 1 1 2 2 2 2 6.3999999999999995 7 0  6.3999999999999995 5.8000000000000007 0  
6.3999999999999995 7 2  6.3999999999999995 5.8000000000000007 2  

-1 2
1 2

-0.59999999999999964 2
0.59999999999999964 2

9 0 0 0 0 1 1 2 2 2 2 -4.5999999999999996 7 0  6.4000000000000004 7 0  
-4.5999999999999996 7 2  6.4000000000000004 7 2  

-1 2
1 2

-5.5 2
5.5 2

9 0 0 0 0 1 1 2 2 2 2 -4.5999999999999996 7 2  -4.5999999999999996 5.8000000000000007 2  
-4.5999999999999996 7 0  -4.5999999999999996 5.8000000000000007 0  

-1 2
1 2

-0.59999999999999964 2
0.59999999999999964 2

9 0 0 0 0 1 1 2 2 2 2 -4.5999999999999996 5.8000000000000007 2  -4.5999999999999996 7 2  
6.4000000000000004 5.8000000000000007 2  6.4000000000000004 7 2  

-5.5 2
5.5 2

-0.59999999999999964 2
0.59999999999999964 2

9 0 0 0 0 1 1 2 2 2 2 2.7999999999999998 -7 0  2.7999999999999998 -5.8000000000000007 0  
6.7999999999999998 -7 0  6.7999999999999998 -5.8000000000000007 0  

-2 2
2 2

-0.60000000000000053 2
0.59999999999999876 2

9 0 0 0 0 1 1 2 2 2 2 2.7999999999999998 -7 2  6.7999999999999998 -7 2  
2.7999999999999998 -7 0  6.7999999999999998 -7 0  

-1 2
1 2

-2 2
2 2

9 0 0 0 0 1 1 2 2 2 2 6.7999999999999998 -5.8000000000000007 0  6.7999999999999998 -7 0  
6.7999999999999998 -5.8000000000000007 2  6.7999999999999998 -7 2  

-1 2
1 2

-0.59999999999999964 2
0.59999999999999964 2

9 0 0 0 0 1 1 2 2 2 2 2.7999999999999998 -5.8000000000000007 0  6.7999999999999998 -5.8000000000000007 0  
2.7999999999999998 -5.8000000000000007 2  6.7999999999999998 -5.8000000000000007 2  

-1 2
1 2

-2 2
2 2

9 0 0 0 0 1 1 2 2 2 2 2.8000000000000003 -5.8000000000000007 2  2.8000000000000003 -7 2  
2.8000000000000003 -5.8000000000000007 0  2.8000000000000003 -7 0  

-1 2
1 2

-0.59999999999999964 2
0.59999999999999964 2

9 0 0 0 0 1 1 2 2 2 2 2.7999999999999998 -7 2  2.7999999999999998 -5.8000000000000007 2  
6.7999999999999998 -7 2  6.7999999999999998 -5.8000000000000007 2  

-2 2
2 2

-0.60000000000000053 2
0.59999999999999876 2

Triangulations 0

TShapes 205
Ve
1e-07
5.8 -4 0
0 0

0101101
*
Ve
1e-07
7 -4 0
0 0

0101101
*
Ed
 1e-07 1 1 0
1  1 0 0 1.2
2  1 1 0 0 1.2
2  2 2 0 0 1.2
0

0101000
+205 0 -204 0 *
Ve
1e-07
7 4 0
0 0

0101101
*
Ed
 1e-07 1 1 0
1  2 0 0 8
2  3 1 0 0 8
2  4 3 0 0 8
0

0101000
+204 0 -202 0 *
Ve
1e-07
5.8 4 0
0 0

0101101
*
Ed
 1e-07 1 1 0
1  3 0 0 1.2
2  5 1 0 0 1.2
2  6 4 0 0 1.2
0

0101000
+202 0 -200 0 *
Ed
 1e-07 1 1 0
1  4 0 0 8
2  7 1 0 0 8
2  8 5 0 0 8
0

0101000
+200 0 -205 0 *
Wi

0101100
+203 0 +201 0 +199 0 +198 0 *
Fa
0  1e-07 1 0

0111000
+197 0 *
Ve
1e-07
7 -4 2
0 0

0101101
*
Ed
 1e-07 1 1 0
1  5 0 0 2
2  9 2 0 0 2
2  10 3 0 0 2
0

0101000
+204 0 -195 0 *
Ve
1e-07
5.8 -4 2
0 0

0101101
*
Ed
 1e-07 1 1 0
1  6 0 0 1.2
2  11 2 0 0 1.2
2  12 6 0 0 1.2
0

0101000
+193 0 -195 0 *
Ed
 1e-07 1 1 0
1  7 0 0 2
2  13 2 0 0 2
2  14 5 0 0 2
0

0101000
+205 0 -193 0 *
Wi

0101100
+203 0 +194 0 -192 0 -191 0 *
Fa
0  1e-07 2 0

0111000
+190 0 *
Ve
1e-07
7 4 2
0 0

0101101
*
Ed
 1e-07 1 1 0
1  8 0 0 2
2  15 3 0 0 2
2  16 4 0 0 2
0

0101000
+202 0 -188 0 *
Ed
 1e-07 1 1 0
1  9 0 0 8
2  17 3 0 0 8
2  18 6 0 0 8
0

0101000
+195 0 -188 0 *
Wi

0101100
+201 0 +187 0 -186 0 -194 0 *
Fa
0  1e-07 3 0

0111000
+185 0 *
Ve
1e-07
5.8 4 2
0 0

0101101
*
Ed
 1e-07 1 1 0
1  10 0 0 2
2  19 4 0 0 2
2  20 5 0 0 2
0

0101000
+200 0 -183 0 *
Ed
 1e-07 1 1 0
1  11 0 0 1.2
2  21 4 0 0 1.2
2  22 6 0 0 1.2
0

0101000
+188 0 -183 0 *
Wi

0101100
+199 0 +182 0 -181 0 -187 0 *
Fa
0  1e-07 4 0

0111000
+180 0 *
Ed
 1e-07 1 1 0
1  12 0 0 8
2  23 5 0 0 8
2  24 6 0 0 8
0

0101000
+183 0 -193 0 *
Wi

0101100
+198 0 +191 0 -178 0 -182 0 *
Fa
0  1e-07 5 0

0111000
+177 0 *
Wi

0101100
+192 0 +186 0 +181 0 +178 0 *
Fa
0  1e-07 6 0

0111000
+175 0 *
Sh

0101100
-196 0 +189 0 +184 0 +179 0 +176 0 +174 0 *
So

0100000
+173 0 *
Ve
1e-07
2.8 -4 0
0 0

0101101
*
Ve
1e-07
4 -4 0
0 0

0101101
*
Ed
 1e-07 1 1 0
1  13 0 0 1.2
2  25 7 0 0 1.2
2  26 8 0 0 1.2
0

0101000
+171 0 -170 0 *
Ve
1e-07
4 4 0
0 0

0101101
*
Ed
 1e-07 1 1 0
1  14 0 0 8
2  27 7 0 0 8
2  28 9 0 0 8
0

0101000
+170 0 -168 0 *
Ve
1e-07
2.8 4 0
0 0

0101101
*
Ed
 1e-07 1 1 0
1  15 0 0 1.2
2  29 7 0 0 1.2
2  30 10 0 0 1.2
0

0101000
+168 0 -166 0 *
Ed
 1e-07 1 1 0
1  16 0 0 8
2  31 7 0 0 8
2  32 11 0 0 8
0

0101000
+166 0 -171 0 *
Wi

0101100
+169 0 +167 0 +165 0 +164 0 *
Fa
0  1e-07 7 0

0111000
+163 0 *
Ve
1e-07
4 -4 2
0 0

0101101
*
Ed
 1e-07 1 1 0
1  17 0 0 2
2  33 8 0 0 2
2  34 9 0 0 2
0

0101000
+170 0 -161 0 *
Ve
1.00000000444089e-07
2.8 -4 2
0 0

0101101
*
Ed
 1e-07 1 1 0
1  18 0 0 1.2
2  35 8 0 0 1.2
2  36 12 0 0 1.2
0

0101000
+159 0 -161 0 *
Ed
 1e-07 1 1 0
1  19 0 0 2
2  37 8 0 0 2
2  38 11 0 0 2
0

0101000
+171 0 -159 0 *
Wi

0101100
+169 0 +160 0 -158 0 -157 0 *
Fa
0  1e-07 8 0

0111000
+156 0 *
Ve
1e-07
4 4 2
0 0

0101101
*
Ed
 1e-07 1 1 0
1  20 0 0 2
2  39 9 0 0 2
2  40 10 0 0 2
0

0101000
+168 0 -154 0 *
Ed
 1e-07 1 1 0
1  21 0 0 8
2  41 9 0 0 8
2  42 12 0 0 8
0

0101000
+161 0 -154 0 *
Wi

0101100
+167 0 +153 0 -152 0 -160 0 *
Fa
0  1e-07 9 0

0111000
+151 0 *
Ve
1.00000000444089e-07
2.8 4 2
0 0

0101101
*
Ed
 1e-07 1 1 0
1  22 0 0 2
2  43 10 0 0 2
2  44 11 0 0 2
0

0101000
+166 0 -149 0 *
Ed
 1e-07 1 1 0
1  23 0 0 1.2
2  45 10 0 0 1.2
2  46 12 0 0 1.2
0

0101000
+154 0 -149 0 *
Wi

0101100
+165 0 +148 0 -147 0 -153 0 *
Fa
0  1e-07 10 0

0111000
+146 0 *
Ed
 1e-07 1 1 0
1  24 0 0 8
2  47 11 0 0 8
2  48 12 0 0 8
0

0101000
+149 0 -159 0 *
Wi

0101100
+164 0 +157 0 -144 0 -148 0 *
Fa
0  1e-07 11 0

0111000
+143 0 *
Wi

0101100
+158 0 +152 0 +147 0 +144 0 *
Fa
0  1e-07 12 0

0111000
+141 0 *
Sh

0101100
-162 0 +155 0 +150 0 +145 0 +142 0 +140 0 *
So

0100000
+139 0 *
Ve
1e-07
-0.2 -4 0
0 0

0101101
*
Ve
1e-07
1 -4 0
0 0

0101101
*
Ed
 1e-07 1 1 0
1  25 0 0 1.2
2  49 13 0 0 1.2
2  50 14 0 0 1.2
0

0101000
+137 0 -136 0 *
Ve
1e-07
1 4 0
0 0

0101101
*
Ed
 1e-07 1 1 0
1  26 0 0 8
2  51 13 0 0 8
2  52 15 0 0 8
0

0101000
+136 0 -134 0 *
Ve
1e-07
-0.2 4 0
0 0

0101101
*
Ed
 1e-07 1 1 0
1  27 0 0 1.2
2  53 13 0 0 1.2
2  54 16 0 0 1.2
0

0101000
+134 0 -132 0 *
Ed
 1e-07 1 1 0
1  28 0 0 8
2  55 13 0 0 8
2  56 17 0 0 8
0

0101000
+132 0 -137 0 *
Wi

0101100
+135 0 +133 0 +131 0 +130 0 *
Fa
0  1e-07 13 0

0111000
+129 0 *
Ve
1e-07
1 -4 2
0 0

0101101
*
Ed
 1e-07 1 1 0
1  29 0 0 2
2  57 14 0 0 2
2  58 15 0 0 2
0

0101000
+136 0 -127 0 *
Ve
1e-07
-0.2 -4 2
0 0

0101101
*
Ed
 1e-07 1 1 0
1  30 0 0 1.2
2  59 14 0 0 1.2
2  60 18 0 0 1.2
0

0101000
+125 0 -127 0 *
Ed
 1e-07 1 1 0
1  31 0 0 2
2  61 14 0 0 2
2  62 17 0 0 2
0

0101000
+137 0 -125 0 *
Wi

0101100
+135 0 +126 0 -124 0 -123 0 *
Fa
0  1e-07 14 0

0111000
+122 0 *
Ve
1e-07
1 4 2
0 0

0101101
*
Ed
 1e-07 1 1 0
1  32 0 0 2
2  63 15 0 0 2
2  64 16 0 0 2
0

0101000
+134 0 -120 0 *
Ed
 1e-07 1 1 0
1  33 0 0 8
2  65 15 0 0 8
2  66 18 0 0 8
0

0101000
+127 0 -120 0 *
Wi

0101100
+133 0 +119 0 -118 0 -126 0 *
Fa
0  1e-07 15 0

0111000
+117 0 *
Ve
1e-07
-0.2 4 2
0 0

0101101
*
Ed
 1e-07 1 1 0
1  34 0 0 2
2  67 16 0 0 2
2  68 17 0 0 2
0

0101000
+132 0 -115 0 *
Ed
 1e-07 1 1 0
1  35 0 0 1.2
2  69 16 0 0 1.2
2  70 18 0 0 1.2
0

0101000
+120 0 -115 0 *
Wi

0101100
+131 0 +114 0 -113 0 -119 0 *
Fa
0  1e-07 16 0

0111000
+112 0 *
Ed
 1e-07 1 1 0
1  36 0 0 8
2  71 17 0 0 8
2  72 18 0 0 8
0

0101000
+115 0 -125 0 *
Wi

0101100
+130 0 +123 0 -110 0 -114 0 *
Fa
0  1e-07 17 0

0111000
+109 0 *
Wi

0101100
+124 0 +118 0 +113 0 +110 0 *
Fa
0  1e-07 18 0

0111000
+107 0 *
Sh

0101100
-128 0 +121 0 +116 0 +111 0 +108 0 +106 0 *
So

0100000
+105 0 *
Ve
1e-07
-3.2 -2 0
0 0

0101101
*
Ve
1e-07
-2 -2 0
0 0

0101101
*
Ed
 1e-07 1 1 0
1  37 0 0 1.2
2  73 19 0 0 1.2
2  74 20 0 0 1.2
0

0101000
+103 0 -102 0 *
Ve
1e-07
-2 4 0
0 0

0101101
*
Ed
 1e-07 1 1 0
1  38 0 0 6
2  75 19 0 0 6
2  76 21 0 0 6
0

0101000
+102 0 -100 0 *
Ve
1e-07
-3.2 4 0
0 0

0101101
*
Ed
 1e-07 1 1 0
1  39 0 0 1.2
2  77 19 0 0 1.2
2  78 22 0 0 1.2
0

0101000
+100 0 -98 0 *
Ed
 1e-07 1 1 0
1  40 0 0 6
2  79 19 0 0 6
2  80 23 0 0 6
0

0101000
+98 0 -103 0 *
Wi

0101100
+101 0 +99 0 +97 0 +96 0 *
Fa
0  1e-07 19 0

0111000
+95 0 *
Ve
1e-07
-2 -2 2
0 0

0101101
*
Ed
 1e-07 1 1 0
1  41 0 0 2
2  81 20 0 0 2
2  82 21 0 0 2
0

0101000
+102 0 -93 0 *
Ve
1.00000000444089e-07
-3.2 -2 2
0 0

0101101
*
Ed
 1e-07 1 1 0
1  42 0 0 1.2
2  83 20 0 0 1.2
2  84 24 0 0 1.2
0

0101000
+91 0 -93 0 *
Ed
 1e-07 1 1 0
1  43 0 0 2
2  85 20 0 0 2
2  86 23 0 0 2
0

0101000
+103 0 -91 0 *
Wi

0101100
+101 0 +92 0 -90 0 -89 0 *
Fa
0  1e-07 20 0

0111000
+88 0 *
Ve
1e-07
-2 4 2
0 0

0101101
*
Ed
 1e-07 1 1 0
1  44 0 0 2
2  87 21 0 0 2
2  88 22 0 0 2
0

0101000
+100 0 -86 0 *
Ed
 1e-07 1 1 0
1  45 0 0 6
2  89 21 0 0 6
2  90 24 0 0 6
0

0101000
+93 0 -86 0 *
Wi

0101100
+99 0 +85 0 -84 0 -92 0 *
Fa
0  1e-07 21 0

0111000
+83 0 *
Ve
1.00000000444089e-07
-3.2 4 2
0 0

0101101
*
Ed
 1e-07 1 1 0
1  46 0 0 2
2  91 22 0 0 2
2  92 23 0 0 2
0

0101000
+98 0 -81 0 *
Ed
 1e-07 1 1 0
1  47 0 0 1.2
2  93 22 0 0 1.2
2  94 24 0 0 1.2
0

0101000
+86 0 -81 0 *
Wi

0101100
+97 0 +80 0 -79 0 -85 0 *
Fa
0  1e-07 22 0

0111000
+78 0 *
Ed
 1e-07 1 1 0
1  48 0 0 6
2  95 23 0 0 6
2  96 24 0 0 6
0

0101000
+81 0 -91 0 *
Wi

0101100
+96 0 +89 0 -76 0 -80 0 *
Fa
0  1e-07 23 0

0111000
+75 0 *
Wi

0101100
+90 0 +84 0 +79 0 +76 0 *
Fa
0  1e-07 24 0

0111000
+73 0 *
Sh

0101100
-94 0 +87 0 +82 0 +77 0 +74 0 +72 0 *
So

0100000
+71 0 *
Ve
1e-07
-4.6 5.8 0
0 0

0101101
*
Ve
1e-07
6.4 5.8 0
0 0

0101101
*
Ed
 1e-07 1 1 0
1  49 0 0 11
2  97 25 0 0 11
2  98 26 0 0 11
0

0101000
+69 0 -68 0 *
Ve
1e-07
6.4 7 0
0 0

0101101
*
Ed
 1e-07 1 1 0
1  50 0 0 1.2
2  99 25 0 0 1.2
2  100 27 0 0 1.2
0

0101000
+68 0 -66 0 *
Ve
1e-07
-4.6 7 0
0 0

0101101
*
Ed
 1e-07 1 1 0
1  51 0 0 11
2  101 25 0 0 11
2  102 28 0 0 11
0

0101000
+66 0 -64 0 *
Ed
 1e-07 1 1 0
1  52 0 0 1.2
2  103 25 0 0 1.2
2  104 29 0 0 1.2
0

0101000
+64 0 -69 0 *
Wi

0101100
+67 0 +65 0 +63 0 +62 0 *
Fa
0  1e-07 25 0

0111000
+61 0 *
Ve
1.00000000888178e-07
6.4 5.8 2
0 0

0101101
*
Ed
 1e-07 1 1 0
1  53 0 0 2
2  105 26 0 0 2
2  106 27 0 0 2
0

0101000
+68 0 -59 0 *
Ve
1e-07
-4.6 5.8 2
0 0

0101101
*
Ed
 1e-07 1 1 0
1  54 0 0 11
2  107 26 0 0 11
2  108 30 0 0 11
0

0101000
+57 0 -59 0 *
Ed
 1e-07 1 1 0
1  55 0 0 2
2  109 26 0 0 2
2  110 29 0 0 2
0

0101000
+69 0 -57 0 *
Wi

0101100
+67 0 +58 0 -56 0 -55 0 *
Fa
0  1e-07 26 0

0111000
+54 0 *
Ve
1.00000000888178e-07
6.4 7 2
0 0

0101101
*
Ed
 1e-07 1 1 0
1  56 0 0 2
2  111 27 0 0 2
2  112 28 0 0 2
0

0101000
+66 0 -52 0 *
Ed
 1e-07 1 1 0
1  57 0 0 1.2
2  113 27 0 0 1.2
2  114 30 0 0 1.2
0

0101000
+59 0 -52 0 *
Wi

0101100
+65 0 +51 0 -50 0 -58 0 *
Fa
0  1e-07 27 0

0111000
+49 0 *
Ve
1e-07
-4.6 7 2
0 0

0101101
*
Ed
 1e-07 1 1 0
1  58 0 0 2
2  115 28 0 0 2
2  116 29 0 0 2
0

0101000
+64 0 -47 0 *
Ed
 1e-07 1 1 0
1  59 0 0 11
2  117 28 0 0 11
2  118 30 0 0 11
0

0101000
+52 0 -47 0 *
Wi

0101100
+63 0 +46 0 -45 0 -51 0 *
Fa
0  1e-07 28 0

0111000
+44 0 *
Ed
 1e-07 1 1 0
1  60 0 0 1.2
2  119 29 0 0 1.2
2  120 30 0 0 1.2
0

0101000
+47 0 -57 0 *
Wi

0101100
+62 0 +55 0 -42 0 -46 0 *
Fa
0  1e-07 29 0

0111000
+41 0 *
Wi

0101100
+56 0 +50 0 +45 0 +42 0 *
Fa
0  1e-07 30 0

0111000
+39 0 *
Sh

0101100
-60 0 +53 0 +48 0 +43 0 +40 0 +38 0 *
So

0100000
+37 0 *
Ve
1e-07
2.8 -7 0
0 0

0101101
*
Ve
1e-07
6.8 -7 0
0 0

0101101
*
Ed
 1e-07 1 1 0
1  61 0 0 4
2  121 31 0 0 4
2  122 32 0 0 4
0

0101000
+35 0 -34 0 *
Ve
1e-07
6.8 -5.8 0
0 0

0101101
*
Ed
 1e-07 1 1 0
1  62 0 0 1.2
2  123 31 0 0 1.2
2  124 33 0 0 1.2
0

0101000
+34 0 -32 0 *
Ve
1e-07
2.8 -5.8 0
0 0

0101101
*
Ed
 1e-07 1 1 0
1  63 0 0 4
2  125 31 0 0 4
2  126 34 0 0 4
0

0101000
+32 0 -30 0 *
Ed
 1e-07 1 1 0
1  64 0 0 1.2
2  127 31 0 0 1.2
2  128 35 0 0 1.2
0

0101000
+30 0 -35 0 *
Wi

0101100
+33 0 +31 0 +29 0 +28 0 *
Fa
0  1e-07 31 0

0111000
+27 0 *
Ve
1e-07
6.8 -7 2
0 0

0101101
*
Ed
 1e-07 1 1 0
1  65 0 0 2
2  129 32 0 0 2
2  130 33 0 0 2
0

0101000
+34 0 -25 0 *
Ve
1.00000000444089e-07
2.8 -7 2
0 0

0101101
*
Ed
 1e-07 1 1 0
1  66 0 0 4
2  131 32 0 0 4
2  132 36 0 0 4
0

0101000
+23 0 -25 0 *
Ed
 1e-07 1 1 0
1  67 0 0 2
2  133 32 0 0 2
2  134 35 0 0 2
0

0101000
+35 0 -23 0 *
Wi

0101100
+33 0 +24 0 -22 0 -21 0 *
Fa
0  1e-07 32 0

0111000
+20 0 *
Ve
1e-07
6.8 -5.8 2
0 0

0101101
*
Ed
 1e-07 1 1 0
1  68 0 0 2
2  135 33 0 0 2
2  136 34 0 0 2
0

0101000
+32 0 -18 0 *
Ed
 1e-07 1 1 0
1  69 0 0 1.2
2  137 33 0 0 1.2
2  138 36 0 0 1.2
0

0101000
+25 0 -18 0 *
Wi

0101100
+31 0 +17 0 -16 0 -24 0 *
Fa
0  1e-07 33 0

0111000
+15 0 *
Ve
1.00000000444089e-07
2.8 -5.8 2
0 0

0101101
*
Ed
 1e-07 1 1 0
1  70 0 0 2
2  139 34 0 0 2
2  140 35 0 0 2
0

0101000
+30 0 -13 0 *
Ed
 1e-07 1 1 0
1  71 0 0 4
2  141 34 0 0 4
2  142 36 0 0 4
0

0101000
+18 0 -13 0 *
Wi

0101100
+29 0 +12 0 -11 0 -17 0 *
Fa
0  1e-07 34 0

0111000
+10 0 *
Ed
 1e-07 1 1 0
1  72 0 0 1.2
2  143 35 0 0 1.2
2  144 36 0 0 1.2
0

0101000
+13 0 -23 0 *
Wi

0101100
+28 0 +21 0 -8 0 -12 0 *
Fa
0  1e-07 35 0

0111000
+7 0 *
Wi

0101100
+22 0 +16 0 +11 0 +8 0 *
Fa
0  1e-07 36 0

0111000
+5 0 *
Sh

0101100
-26 0 +19 0 +14 0 +9 0 +6 0 +4 0 *
So

0100000
+3 0 *
Co

1100000
+172 0 +138 0 +104 0 +70 0 +36 0 +2 0 *

+1 0 