
CASCADE Topology V3, (c) Open Cascade
Locations 0
Curve2ds 63
1 1.4999999999999998 -7.2999999999999998 0 1 
1 -7.2999999999999998 -7.2999999999999998 1 0 
1 -1 0.29999999999999893 0 -1 
1 -1.0500000000000003 -0.29999999999999893 0 1 
1 0.99999999999999978 -6.7000000000000002 0 -1 
1 -1.5 7 0 -1 
1 7 -7 -1 0 
1 1.5 -7 0 1 
1 7 7 0 -1 
1 1.5 -7 0 1 
1 -7 7 1 0 
1 -1.5 7 0 -1 
1 -7 -7 0 1 
1 1 0.29999999999999893 0 -1 
1 1.0500000000000003 -0.29999999999999893 0 1 
1 -1.0000000000000002 -6.7000000000000002 0 -1 
1 1.4999999999999998 -7.2999999999999998 0 1 
1 -7.2999999999999998 7.2999999999999998 0 -1 
1 -1.4999999999999998 7.2999999999999998 0 -1 
1 7.2999999999999998 7.2999999999999998 -1 0 
1 -1.4999999999999998 7.2999999999999998 0 -1 
1 7.2999999999999998 -7.2999999999999998 0 1 
1 1.4999999999999998 7.2999999999999998 -1 0 
1 1.4999999999999998 -7.2999999999999998 -1 0 
1 -7.2999999999999998 -7.2999999999999998 1 0 
1 -1.5000000000000002 -7.2999999999999998 0 1 
1 -1.4999999999999998 7.2999999999999998 1 0 
1 1.4999999999999998 7.2999999999999998 -1 0 
1 1 -1.0499999999999998 0 1 
1 -1.0500000000000003 0.30000000000000071 1 -1.1102230246251565e-16 
1 1.4999999999999998 1 -1 0 
1 1 1.0500000000000007 -1 0 
1 1 -0.30000000000000071 -1 0 
1 -0.60000000000000075 1 0 -1 
1 -1 1.0500000000000007 0 -1 
1 -1.0500000000000003 0.30000000000000071 1 1.1102230246251565e-16 
1 -0.60000000000000075 -1 1 0 
1 1.0500000000000003 -0.29999999999999893 0 1 
1 1 0.29999999999999893 0 -1 
8 -0.8250000000000004 1.2750000000000001
1 -0.22499999999999987 1 -1 0 
8 -0.8250000000000004 1.2750000000000001
1 0.22499999999999987 8.8817841970012523e-16 -1 0 
1 1.5 7 -1 0 
1 -1.5 7 1 0 
1 7 -7 -1 0 
1 1.5 7 0 -1 
1 -1.5 7 1 0 
1 -1.5 -7 1 0 
8 -1.2750000000000001 0.8250000000000004
1 -0.22499999999999987 -1 1 0 
8 -1.2750000000000001 0.8250000000000004
1 -0.22499999999999987 8.8817841970012523e-16 -1 0 
8 -1 1
1 0.60000000000000009 0 0 1 
8 -1 1
1 0 -8.8817841970012523e-16 1 0 
1 7 7 0 -1 
1 1.5 7 -1 0 
1 -7 7 1 0 
1 -1.5 -7 1 0 
1 -7 -7 0 1 
1 -1 0.29999999999999893 0 -1 
1 -1.0500000000000003 -0.29999999999999893 0 1 
1 -7.2999999999999998 7.2999999999999998 0 -1 
1 -1.4999999999999998 -7.2999999999999998 1 0 
1 7.2999999999999998 7.2999999999999998 -1 0 
1 -1.4999999999999998 -7.2999999999999998 1 0 
1 7.2999999999999998 -7.2999999999999998 0 1 
Curves 34
1 -7.2999999999999998 -7.2999999999999998 0 1 0 0 
1 1 -6.7000000000000002 0 0 -1 0 
1 7 -7 0 -1 0 0 
1 7 7 0 0 -1 0 
1 -7 7 0 1 0 0 
1 -7 -7 0 0 1 0 
1 -1 -6.7000000000000002 0 0 -1 0 
1 -7.2999999999999998 7.2999999999999998 0 0 -1 0 
1 7.2999999999999998 7.2999999999999998 0 -1 0 0 
1 7.2999999999999998 -7.2999999999999998 0 0 1 0 
1 -7.2999999999999998 -7.2999999999999998 0 0 0 1 
1 -7.2999999999999998 -7.2999999999999998 3 1 0 0 
1 7.2999999999999998 -7.2999999999999998 0 0 0 1 
1 1 -7.2999999999999998 0 0 1.1102230246251565e-16 1 
1 1 -7.2999999999999998 2.1000000000000005 -1 0 0 
1 -1 -7.2999999999999998 2.1000000000000005 0 -1.1102230246251565e-16 -1 
1 1 -6.7000000000000002 2.1000000000000005 0 -1 0 
1 1 -7 1.2750000000000001 0 0 -1 
1 7 -7 0 0 0 1 
1 7 -7 3 -1 0 0 
1 -7 -7 0 0 0 1 
1 -1 -7 1.2750000000000001 0 0 1 
1 0 -7 2.1000000000000001 1 0 0 
1 7 7 3 0 -1 0 
1 7 7 0 0 0 1 
1 -7 7 3 1 0 0 
1 -7 7 0 0 0 1 
1 -7 -7 3 0 1 0 
1 -1 -6.7000000000000002 2.1000000000000005 0 -1 0 
1 -7.2999999999999998 7.2999999999999998 3 0 -1 0 
1 -7.2999999999999998 7.2999999999999998 0 0 0 1 
1 7.2999999999999998 7.2999999999999998 3 -1 0 0 
1 7.2999999999999998 7.2999999999999998 0 0 0 1 
1 7.2999999999999998 -7.2999999999999998 3 0 1 0 
Polygon3D 0
PolygonOnTriangulations 0
Surfaces 15
1 2.433365533425001e-16 2.433365533425001e-16 0 0 0 1 1 0 -0 -0 1 0 
1 0 -7.2999999999999989 1.4999999999999998 -0 -1 -0 0 0 -1 1 -0 0 
1 0 -6.9999999999999991 0 -0 -0 -1 -1 0 0 0 1 -0 
1 1 -6.9999999999999991 1.0500000000000003 1 0 0 -0 0 1 0 -1 0 
1 0 -7 1.5 0 1 0 0 -0 1 1 0 -0 
1 7 0 1.5 -1 -0 -0 0 0 -1 0 -1 0 
1 0 7 1.5 -0 -1 -0 0 0 -1 1 -0 0 
1 -7 0 1.5 1 0 0 -0 0 1 0 -1 0 
1 -1 -6.9999999999999991 1.0500000000000003 -1 -0 -0 0 0 -1 0 -1 0 
1 -7.2999999999999989 0 1.4999999999999998 -1 -0 -0 0 0 -1 0 -1 0 
1 0 7.2999999999999989 1.4999999999999998 0 1 0 0 -0 1 1 0 -0 
1 7.2999999999999989 0 1.4999999999999998 1 0 0 -0 0 1 0 -1 0 
1 2.433365533425001e-16 2.433365533425001e-16 3 0 0 1 1 0 -0 -0 1 0 
1 0 -7.2999999999999998 1.0499999999999998 0 -1 1.1102230246251565e-16 1 0 0 0 1.1102230246251565e-16 1 
1 0 -6.9999999999999991 2.1000000000000001 0 0 1 1 0 -0 -0 1 0 
Triangulations 0

TShapes 89
Ve
1.00000000888178e-07
1 -7.3 0
0 0

0101101
*
Ve
1e-07
7.3 -7.3 0
0 0

0101101
*
Ed
 1e-07 1 1 0
1  1 0 8.3 14.6
2  1 2 0 8.3 14.6
2  2 1 0 8.3 14.6
0

0101000
+89 0 -88 0 *
Ve
1.5e-07
1 -7 0
0 0

0101101
*
Ed
 1e-07 1 1 0
1  2 0 0.3 0.6
2  3 3 0 0.3 0.6
2  4 4 0 0.3 0.6
2  5 1 0 0.3 0.6
0

0101000
+86 0 -89 0 *
Ve
1e-07
7 -7 0
0 0

0101101
*
Ed
 1e-07 1 1 0
1  3 0 0 6
2  6 5 0 0 6
2  7 1 0 0 6
0

0101000
+84 0 -86 0 *
Ve
1e-07
7 7 0
0 0

0101101
*
Ed
 1e-07 1 1 0
1  4 0 0 14
2  8 6 0 0 14
2  9 1 0 0 14
0

0101000
+82 0 -84 0 *
Ve
1e-07
-7 7 0
0 0

0101101
*
Ed
 1e-07 1 1 0
1  5 0 0 14
2  10 7 0 0 14
2  11 1 0 0 14
0

0101000
+80 0 -82 0 *
Ve
1e-07
-7 -7 0
0 0

0101101
*
Ed
 1e-07 1 1 0
1  6 0 0 14
2  12 8 0 0 14
2  13 1 0 0 14
0

0101000
+78 0 -80 0 *
Ve
1.5e-07
-1 -7 0
0 0

0101101
*
Ed
 1e-07 1 1 0
1  3 0 8 14
2  6 5 0 8 14
2  7 1 0 8 14
0

0101000
+76 0 -78 0 *
Ve
1.00000000888178e-07
-1 -7.3 0
0 0

0101101
*
Ed
 1e-07 1 1 0
1  7 0 0.3 0.6
2  14 3 0 0.3 0.6
2  15 9 0 0.3 0.6
2  16 1 0 0.3 0.6
0

0101000
+76 0 -74 0 *
Ve
1e-07
-7.3 -7.3 0
0 0

0101101
*
Ed
 1e-07 1 1 0
1  1 0 0 6.3
2  1 2 0 0 6.3
2  2 1 0 0 6.3
0

0101000
+72 0 -74 0 *
Ve
1e-07
-7.3 7.3 0
0 0

0101101
*
Ed
 1e-07 1 1 0
1  8 0 0 14.6
2  17 10 0 0 14.6
2  18 1 0 0 14.6
0

0101000
+70 0 -72 0 *
Ve
1e-07
7.3 7.3 0
0 0

0101101
*
Ed
 1e-07 1 1 0
1  9 0 0 14.6
2  19 11 0 0 14.6
2  20 1 0 0 14.6
0

0101000
+68 0 -70 0 *
Ed
 1e-07 1 1 0
1  10 0 0 14.6
2  21 12 0 0 14.6
2  22 1 0 0 14.6
0

0101000
+88 0 -68 0 *
Wi

0101100
+87 0 +85 0 +83 0 +81 0 +79 0 +77 0 +75 0 -73 0 +71 0 +69 0 
+67 0 +66 0 *
Fa
0  1e-07 1 0

0101000
+65 0 *
Ve
1e-07
-7.3 -7.3 3
0 0

0101101
*
Ed
 1e-07 1 1 0
1  11 0 0 3
2  23 10 0 0 3
2  24 2 0 0 3
0

0101000
+72 0 -63 0 *
Ve
1e-07
7.3 -7.3 3
0 0

0101101
*
Ed
 1e-07 1 1 0
1  12 0 0 14.6
2  25 13 0 0 14.6
2  26 2 0 0 14.6
0

0101000
+63 0 -61 0 *
Ed
 1e-07 1 1 0
1  13 0 0 3
2  27 12 0 0 3
2  28 2 0 0 3
0

0101000
+88 0 -61 0 *
Ve
1.00000000888178e-07
1 -7.3 2.1
0 0

0101101
*
Ed
 1.00000000888178e-07 1 1 0
1  14 0 0 2.1
2  29 14 0 0 2.1
2  30 4 0 0 2.1
2  31 2 0 0 2.1
0

0101000
+89 0 -58 0 *
Ve
1.00000000888178e-07
-1 -7.3 2.1
0 0

0101101
*
Ed
 1.00000000888178e-07 1 1 0
1  15 0 0 2
2  32 14 0 0 2
2  33 15 0 0 2
2  34 2 0 0 2
0

0101000
+58 0 -56 0 *
Ed
 1.00000000888178e-07 1 1 0
1  16 0 0 2.1
2  35 14 0 0 2.1
2  36 9 0 0 2.1
2  37 2 0 0 2.1
0

0101000
+56 0 -74 0 *
Wi

0101100
-62 0 -60 0 +59 0 +87 0 -57 0 -55 0 -54 0 +71 0 *
Fa
0  1e-07 2 0

0101000
+53 0 *
Ve
1.50000000444089e-07
1 -7 2.1
0 0

0101101
*
Ed
 1e-07 1 1 0
1  17 0 0.3 0.6
2  38 4 0 0.3 0.6
2  39 15 0 0.3 0.6
0

0101000
+51 0 -58 0 *
Ed
 1.5e-07 1 1 0
1  18 0 -0.825 1.275
2  40 5 0 -0.825 1.275
2  41 4 0 -0.825 1.275
0

0101000
+51 0 -86 0 *
Wi

0101100
-85 0 -57 0 +50 0 -49 0 *
Fa
0  1e-07 4 0

0101000
+48 0 *
Ve
1e-07
7 -7 3
0 0

0101101
*
Ed
 1e-07 1 1 0
1  19 0 0 3
2  42 6 0 0 3
2  43 5 0 0 3
0

0101000
+84 0 -46 0 *
Ve
1e-07
-7 -7 3
0 0

0101101
*
Ed
 1e-07 1 1 0
1  20 0 0 14
2  44 13 0 0 14
2  45 5 0 0 14
0

0101000
+46 0 -44 0 *
Ed
 1e-07 1 1 0
1  21 0 0 3
2  46 8 0 0 3
2  47 5 0 0 3
0

0101000
+78 0 -44 0 *
Ve
1.50000000444089e-07
-1 -7 2.1
0 0

0101101
*
Ed
 1.5e-07 1 1 0
1  22 0 -1.275 0.825
2  48 5 0 -1.275 0.825
2  49 9 0 -1.275 0.825
0

0101000
+76 0 -41 0 *
Ed
 1.5e-07 1 1 0
1  23 0 -1 1
2  50 5 0 -1 1
2  51 15 0 -1 1
0

0101000
+41 0 -51 0 *
Wi

0101100
-45 0 -43 0 +42 0 +75 0 -40 0 -39 0 -49 0 +83 0 *
Fa
0  1e-07 5 0

0101000
+38 0 *
Ve
1e-07
7 7 3
0 0

0101101
*
Ed
 1e-07 1 1 0
1  24 0 0 14
2  52 13 0 0 14
0

0101000
+36 0 -46 0 *
Ed
 1e-07 1 1 0
1  25 0 0 3
2  53 7 0 0 3
0

0101000
+82 0 -36 0 *
Wi

0101100
+81 0 +45 0 -35 0 -34 0 *
Fa
0  1e-07 6 0

0111000
+33 0 *
Ve
1e-07
-7 7 3
0 0

0101101
*
Ed
 1e-07 1 1 0
1  26 0 0 14
2  54 13 0 0 14
0

0101000
+31 0 -36 0 *
Ed
 1e-07 1 1 0
1  27 0 0 3
2  55 8 0 0 3
0

0101000
+80 0 -31 0 *
Wi

0101100
+79 0 +34 0 -30 0 -29 0 *
Fa
0  1e-07 7 0

0111000
+28 0 *
Ed
 1e-07 1 1 0
1  28 0 0 14
2  56 13 0 0 14
0

0101000
+44 0 -31 0 *
Wi

0101100
+77 0 +29 0 -26 0 -42 0 *
Fa
0  1e-07 8 0

0111000
+25 0 *
Ed
 1e-07 1 1 0
1  29 0 0.3 0.6
2  57 15 0 0.3 0.6
2  58 9 0 0.3 0.6
0

0101000
+41 0 -56 0 *
Wi

0101100
-23 0 -54 0 +73 0 -40 0 *
Fa
0  1e-07 9 0

0101000
+22 0 *
Ve
1e-07
-7.3 7.3 3
0 0

0101101
*
Ed
 1e-07 1 1 0
1  30 0 0 14.6
2  59 13 0 0 14.6
0

0101000
+20 0 -63 0 *
Ed
 1e-07 1 1 0
1  31 0 0 3
2  60 11 0 0 3
0

0101000
+70 0 -20 0 *
Wi

0101100
+69 0 +62 0 -19 0 -18 0 *
Fa
0  1e-07 10 0

0111000
+17 0 *
Ve
1e-07
7.3 7.3 3
0 0

0101101
*
Ed
 1e-07 1 1 0
1  32 0 0 14.6
2  61 13 0 0 14.6
0

0101000
+15 0 -20 0 *
Ed
 1e-07 1 1 0
1  33 0 0 3
2  62 12 0 0 3
0

0101000
+68 0 -15 0 *
Wi

0101100
+67 0 +18 0 -14 0 -13 0 *
Fa
0  1e-07 11 0

0111000
+12 0 *
Ed
 1e-07 1 1 0
1  34 0 0 14.6
2  63 13 0 0 14.6
0

0101000
+61 0 -15 0 *
Wi

0101100
+66 0 +13 0 -10 0 -59 0 *
Fa
0  1e-07 12 0

0111000
+9 0 *
Wi

0101100
+10 0 +14 0 +19 0 +60 0 *
Wi

0101100
+26 0 +30 0 +35 0 +43 0 *
Fa
0  1e-07 13 0

0111000
+7 0 +6 0 *
Wi

0101100
-50 0 -55 0 +23 0 -39 0 *
Fa
0  1e-07 15 0

0101000
+4 0 *
Sh

0101100
-64 0 +52 0 -47 0 +37 0 +32 0 +27 0 +24 0 -21 0 +16 0 +11 0 
+8 0 +5 0 -3 0 *
So

0100000
+2 0 *

+1 0 